# xmcd
#
# Track frame offsets:
# 150
# 31922
# 69997
# 109540
# 124090
# 165602
# 181472
# 203980
# 229057
# 243465
#
# Disc length: 3409 seconds
#
# Revision: 0
# Processed by: cddbd v1.5.2PL0 Copyright (c) Steve Scherf et al.
# Submitted via: Audion 3.0.2 (http://www.panic.com/audion/)
#
DISCID=810d4f0a
DTITLE=JOSEPH HADER - HADER MUSS WEG 2
DYEAR=1900
DGENRE=
TTITLE0=IN EINER GRAUSLIGEN SPELUNKE
TTITLE1=GESPRÄCH UNTER MÄNNERN
TTITLE2=DAS ENDE EINER LIEBE
TTITLE3=DIE SCHRECKLICHE GESCHICHTE EINER MOTORRADFAHRT
TTITLE4=KIFFEN IM AUTO
TTITLE5=VERKEHRSUNFALL MIT HERZINFARKT
TTITLE6=DIE TANKSTELLE IST GESCHLOSSEN
TTITLE7=WER DARF SICH ALS ERSTER UMBRINGEN
TTITLE8=HAPPY END
TTITLE9=TOTEN HADER SCHAUN
EXTD=
EXTT0=
EXTT1=
EXTT2=
EXTT3=
EXTT4=
EXTT5=
EXTT6=
EXTT7=
EXTT8=
EXTT9=
PLAYORDER=
